<svg width="45" height="45" viewBox="0 0 45 45" fill="none" xmlns="http://www.w3.org/2000/svg">
<path d="M39.3333 44H11.3333C8.85798 44 6.48401 43.0167 4.73367 41.2663C2.98333 39.516 2 37.142 2 34.6667V6.66667C2 5.42899 2.49167 4.242 3.36683 3.36683C4.242 2.49167 5.42899 2 6.66667 2H30C31.2377 2 32.4247 2.49167 33.2998 3.36683C34.175 4.242 34.6667 5.42899 34.6667 6.66667V37C34.6667 40.8663 35.467 44 39.3333 44Z" stroke="#F8F8F8" stroke-width="2" stroke-linecap="round" stroke-linejoin="round"/>
<path d="M44.0003 18.3334C44.0003 17.0957 43.5087 15.9087 42.6335 15.0335C41.7583 14.1584 40.5713 13.6667 39.3337 13.6667H34.667V38.1667C34.667 41.3867 36.1137 44 39.3337 44C42.5537 44 44.0003 41.3867 44.0003 38.1667V18.3334Z" stroke="#F8F8F8" stroke-width="2" stroke-linecap="round" stroke-linejoin="round"/>
<path d="M25.333 20.6666H11.333M25.333 11.3333H11.333M18.333 30H11.333" stroke="#F8F8F8" stroke-width="2" stroke-linecap="round"/>
</svg>
