<svg width="45" height="45" viewBox="0 0 45 45" fill="none" xmlns="http://www.w3.org/2000/svg">
<path d="M8 3L8.38 4.88C8.65232 6.23001 9.26854 7.48686 10.169 8.52889C11.0695 9.57092 12.2237 10.3628 13.52 10.828L14 11L13.52 11.172C12.2237 11.6372 11.0695 12.4291 10.169 13.4711C9.26854 14.5131 8.65232 15.77 8.38 17.12L8 19L7.62 17.12C7.34768 15.77 6.73146 14.5131 5.83098 13.4711C4.9305 12.4291 3.77627 11.6372 2.48 11.172L2 11L2.48 10.828C3.77627 10.3628 4.9305 9.57092 5.83098 8.52889C6.73146 7.48686 7.34768 6.23001 7.62 4.88L8 3ZM14 31L14.46 33.552C14.5794 34.2177 14.8657 34.8422 15.2921 35.3672C15.7185 35.8922 16.271 36.3005 16.898 36.554L18 37L16.898 37.446C16.2709 37.699 15.7181 38.1069 15.2914 38.6316C14.8647 39.1562 14.5779 39.7805 14.458 40.446L14 43L13.54 40.448C13.4206 39.7823 13.1343 39.1578 12.7079 38.6328C12.2815 38.1078 11.729 37.6995 11.102 37.446L10 37L11.102 36.554C11.7291 36.301 12.2819 35.8931 12.7086 35.3684C13.1353 34.8438 13.4221 34.2195 13.542 33.554L14 31ZM30 5L31.112 10.308C31.6787 13.0142 32.9371 15.5273 34.7643 17.6023C36.5915 19.6774 38.9253 21.2435 41.538 22.148L44 23L41.538 23.852C38.9253 24.7565 36.5915 26.3226 34.7643 28.3977C32.9371 30.4727 31.6787 32.9858 31.112 35.692L30 41L28.888 35.692C28.3213 32.9858 27.0629 30.4727 25.2357 28.3977C23.4085 26.3226 21.0747 24.7565 18.462 23.852L16 23L18.462 22.148C21.0747 21.2435 23.4085 19.6774 25.2357 17.6023C27.0629 15.5273 28.3213 13.0142 28.888 10.308L30 5Z" stroke="#F8F8F8" stroke-width="2" stroke-linecap="round" stroke-linejoin="round"/>
</svg>
